PathFileType	4	(X/Y/Z)	/Users/itak/Documents/Research/Walk-IL/dataset/trc/00427_00167.trc
DataRate	CameraRate	NumFrames	NumMarkers	Units	OrigDataRate	OrigDataStartFrame	OrigNumFrames
100.000000	100.000000	4	53	mm	100.000000	406	651
Frame#	Time	RPSI			LPSI			L3			STRN			T10			C7			CLAV			RBAK			LBAK			LSHO			LUPA			LAEL			LAOL			LWTS			LWPS			LFRA			LIFD			LHPS			LHTS			RSHO			RUPA			RAEL			RAOL			RWTS			RWPS			RFRA			RIFD			RHTS			RHPS			RBHD			LFHD			RFHD			LBHD			LHIP			RHIP			RASI			LASI			LKNE			LTHI			LANK			LTIP			LTOE			LMT1			LMT5			LHEE			RKNE			RTHI			RANK			RTIP			RTOE			RMT1			RMT5			RHEE			
		X1	Y1	Z1	X2	Y2	Z2	X3	Y3	Z3	X4	Y4	Z4	X5	Y5	Z5	X6	Y6	Z6	X7	Y7	Z7	X8	Y8	Z8	X9	Y9	Z9	X10	Y10	Z10	X11	Y11	Z11	X12	Y12	Z12	X13	Y13	Z13	X14	Y14	Z14	X15	Y15	Z15	X16	Y16	Z16	X17	Y17	Z17	X18	Y18	Z18	X19	Y19	Z19	X20	Y20	Z20	X21	Y21	Z21	X22	Y22	Z22	X23	Y23	Z23	X24	Y24	Z24	X25	Y25	Z25	X26	Y26	Z26	X27	Y27	Z27	X28	Y28	Z28	X29	Y29	Z29	X30	Y30	Z30	X31	Y31	Z31	X32	Y32	Z32	X33	Y33	Z33	X34	Y34	Z34	X35	Y35	Z35	X36	Y36	Z36	X37	Y37	Z37	X38	Y38	Z38	X39	Y39	Z39	X40	Y40	Z40	X41	Y41	Z41	X42	Y42	Z42	X43	Y43	Z43	X44	Y44	Z44	X45	Y45	Z45	X46	Y46	Z46	X47	Y47	Z47	X48	Y48	Z48	X49	Y49	Z49	X50	Y50	Z50	X51	Y51	Z51	X52	Y52	Z52	X53	Y53	Z53	

407	4.06	448.5691833496094	951.1504516601562	673.95947265625	536.4862060546875	940.6329956054688	562.0214233398438	479.468505859375	1048.48583984375	641.01611328125	703.8694458007812	1244.113159179688	777.1956176757812	459.2835998535156	1172.606689453125	632.3858032226562	501.3438110351562	1442.611206054688	680.8314819335938	670.9568481445312	1356.472900390625	753.966796875	401.7493896484375	1320.200561523438	733.646728515625	523.6557006835938	1396.69921875	576.8756713867188	652.7420043945312	1416.200073242188	559.142822265625	690.32275390625	1303.80859375	461.3744506835938	720.2472534179688	1092.546142578125	419.7304992675781	622.7473754882812	1072.626831054688	449.153564453125	787.5153198242188	889.1600952148438	479.7643737792969	765.9376831054688	875.4228515625	410.192138671875	746.4722290039062	1005.660522460938	413.6705322265625	800.4730834960938	720.6912841796875	471.0745544433594	775.2959594726562	794.8640747070312	410.84228515625	809.6265258789062	800.6889038085938	472.3811950683594	489.0974731445312	1404.49267578125	855.1625366210938	442.9858093261719	1344.808715820312	918.3121948242188	443.2425231933594	1067.867797851562	1005.513854980469	414.2247314453125	1036.892578125	949.23095703125	587.0448608398438	894.9151611328125	1039.307861328125	507.8399353027344	866.6044311523438	1062.6279296875	452.4274291992188	1011.980224609375	1024.119262695312	617.633544921875	743.791259765625	1078.37451171875	614.1060180664062	804.9205322265625	1078.358032226562	540.80517578125	786.9845581054688	1085.2958984375	527.6939697265625	1632.217407226562	794.7791137695312	724.8617553710938	1652.650268554688	736.7513427734375	655.1201171875	1650.51025390625	847.4505004882812	609.8154296875	1640.205688476562	636.8270874023438	729.7098388671875	848.77880859375	563.5255126953125	457.4868774414062	848.3162231445312	857.48583984375	575.5838012695312	892.9884033203125	872.7183227539062	740.4381713867188	897.066650390625	680.8700561523438	850.2222900390625	456.9102478027344	673.7369995117188	845.4771118164062	613.8184204101562	652.015380859375	710.9747314453125	75.12387084960938	563.1001586914062	815.5595703125	305.2221069335938	629.8473510742188	866.4251708984375	51.39605712890625	731.4899291992188	789.087158203125	56.14605712890625	721.8709106445312	841.099365234375	57.71443557739258	625.4271240234375	640.0662231445312	81.28549957275391	578.5886840820312	509.8971557617188	451.8059692382812	811.0177001953125	497.7758178710938	710.5382690429688	877.9400024414062	478.9171752929688	40.97149276733398	731.4981689453125	505.6085815429688	303.2714233398438	798.4945068359375	689.812744140625	39.51315689086914	808.0523071289062	650.0121459960938	46.08142852783203	743.5985107421875	577.0090942382812	45.4909553527832	822.8890380859375	447.809326171875	33.6006965637207	655.9490966796875	
408	4.07	453.2779235839844	950.3690185546875	676.4969482421875	541.6214599609375	939.7590942382812	564.9100341796875	483.6968078613281	1047.780395507812	643.7575073242188	707.9510498046875	1243.69189453125	780.2832641601562	463.4940490722656	1171.834594726562	635.2957763671875	505.428466796875	1441.934692382812	683.6755981445312	675.0010986328125	1356.028930664062	756.9142456054688	405.8122863769531	1319.564453125	736.6932373046875	527.7484741210938	1395.913330078125	579.6619262695312	656.8023681640625	1415.471435546875	562.0607299804688	695.203369140625	1302.93505859375	464.8080444335938	727.088134765625	1091.81591796875	424.0890502929688	629.5426635742188	1071.194091796875	452.7870788574219	795.7472534179688	889.2634887695312	485.935546875	775.003173828125	874.9232788085938	416.2461547851562	754.1895141601562	1005.159362792969	418.723388671875	808.6107788085938	720.5484008789062	478.9616088867188	784.2492065429688	794.17626953125	417.7692260742188	817.8890380859375	800.5304565429688	479.6731872558594	493.2570495605469	1404.037963867188	858.0851440429688	447.38427734375	1344.365966796875	921.3875122070312	449.1787719726562	1067.733154296875	1009.653503417969	419.874267578125	1036.283203125	953.7703857421875	594.439208984375	896.086669921875	1043.218627929688	515.6368408203125	867.1949462890625	1067.18994140625	458.8009948730469	1011.994445800781	1028.38427734375	626.7125244140625	745.461669921875	1082.862915039062	622.5889892578125	806.5968017578125	1082.520141601562	549.6419067382812	788.1395263671875	1090.341674804688	532.34130859375	1631.682739257812	797.8909912109375	729.4321899414062	1651.79248046875	739.3816528320312	659.8781127929688	1649.646240234375	850.1722412109375	614.1256103515625	1639.590576171875	639.6902465820312	735.2273559570312	848.6090698242188	567.3865356445312	461.2781677246094	847.7523803710938	860.05908203125	579.3919067382812	892.4263916015625	875.8301391601562	745.0888671875	897.0663452148438	684.7329711914062	857.7949829101562	458.0128173828125	681.0894165039062	851.4712524414062	614.6596069335938	657.68310546875	732.9705810546875	69.23519134521484	578.6200561523438	828.7874755859375	304.4754028320312	640.4827270507812	887.6967163085938	54.20780181884766	748.6934814453125	810.3329467773438	56.15406036376953	738.4490356445312	863.1096801757812	57.39619827270508	642.3653564453125	661.782470703125	73.42738342285156	593.4139404296875	512.7062377929688	451.3495483398438	812.734375	501.2782287597656	709.9285278320312	880.2479248046875	479.0390930175781	41.08536148071289	731.4009399414062	507.5462036132812	302.8422241210938	799.4905395507812	689.7748413085938	39.46682357788086	808.0674438476562	650.1419067382812	46.03146743774414	743.5474853515625	577.1280517578125	45.56225967407227	822.7889404296875	447.8359375	33.71976470947266	655.867919921875	
409	4.08	457.9789733886719	949.5078125	678.997314453125	546.7340698242188	938.8291625976562	567.7525634765625	487.9548950195312	1047.031372070312	646.4285888671875	712.0203857421875	1243.192993164062	783.3731689453125	467.6998291015625	1171.013916015625	638.1233520507812	509.5670776367188	1441.19921875	686.4360961914062	679.060546875	1355.502075195312	759.8453979492188	409.8828430175781	1318.885986328125	739.630126953125	531.9501953125	1395.065185546875	582.3823852539062	660.9921264648438	1414.646606445312	564.9736938476562	700.2454223632812	1301.963989257812	468.2535705566406	734.0276489257812	1091.000122070312	428.4884948730469	636.4061279296875	1069.711547851562	456.3712463378906	803.915283203125	889.2949829101562	492.2063598632812	784.092041015625	874.3807373046875	422.3808898925781	761.9782104492188	1004.581237792969	423.8441467285156	816.8016357421875	720.3671875	486.8523864746094	793.2954711914062	793.4789428710938	424.735107421875	826.1544799804688	800.3521118164062	487.0350036621094	497.3932189941406	1403.548217773438	860.91943359375	451.7305603027344	1343.8828125	924.357666015625	455.0132141113281	1067.512939453125	1013.595031738281	425.4505310058594	1035.61669921875	958.1365356445312	601.7009887695312	897.097412109375	1046.763793945312	523.2933349609375	867.686767578125	1071.446411132812	465.1026000976562	1011.929321289062	1032.435424804688	635.5811157226562	746.9404296875	1086.889282226562	630.890380859375	808.0597534179688	1086.26318359375	558.3883666992188	789.267578125	1095.14599609375	536.9976196289062	1631.06689453125	800.9351806640625	734.0051879882812	1650.88916015625	741.9705810546875	664.6214599609375	1648.726318359375	852.8372802734375	618.451171875	1638.90771484375	642.5031127929688	740.7144165039062	848.400146484375	571.21435546875	465.0564880371094	847.1179809570312	862.6106567382812	583.172607421875	891.813232421875	878.9200439453125	749.7161865234375	897.00830078125	688.5654907226562	865.1879272460938	459.0031433105469	688.2197265625	857.2804565429688	615.3831176757812	663.1773681640625	754.8728637695312	63.95887756347656	594.2543334960938	841.8584594726562	303.9111633300781	651.0396118164062	908.2236938476562	57.42191696166992	766.0763549804688	830.93701171875	56.70909118652344	755.0963745117188	884.6819458007812	57.52543640136719	659.4982299804688	683.4327392578125	66.31276702880859	608.2489624023438	515.5983276367188	450.8359680175781	814.4837036132812	504.8055725097656	709.2672729492188	882.5575561523438	479.1684875488281	41.2038459777832	731.2894897460938	509.5444641113281	302.3697204589844	800.5072631835938	689.7366333007812	39.42841720581055	808.0768432617188	650.3308715820312	45.98137283325195	743.51513671875	577.2542114257812	45.64426422119141	822.6780395507812	447.8646545410156	33.82461166381836	655.784912109375	
410	4.09	462.6771545410156	948.5658569335938	681.4716796875	551.8319091796875	937.8502807617188	570.560791015625	492.251953125	1046.233154296875	649.0288696289062	716.0831909179688	1242.617309570312	786.47412109375	471.9029541015625	1170.146362304688	640.8694458007812	513.7677001953125	1440.402099609375	689.1187133789062	683.14111328125	1354.892822265625	762.7679443359375	413.9761962890625	1318.16259765625	742.4556274414062	536.2644653320312	1394.155151367188	585.0467529296875	665.3116455078125	1413.726684570312	567.88623046875	705.43310546875	1300.901123046875	471.7075805664062	741.0297241210938	1090.099487304688	432.9139709472656	643.3187866210938	1068.187866210938	459.9036560058594	811.9969482421875	889.2666625976562	498.5627136230469	793.1671142578125	873.8052978515625	428.5852355957031	769.8004760742188	1003.927429199219	429.0195007324219	825.0928344726562	720.1689453125	494.7091979980469	802.4371337890625	792.7950439453125	431.7192993164062	834.4304809570312	800.1806640625	494.4353942871094	501.5094909667969	1403.023803710938	863.6702270507812	456.0226440429688	1343.3583984375	927.2251586914062	460.7529296875	1067.210083007812	1017.338195800781	430.9834594726562	1034.885498046875	962.3086547851562	608.8201904296875	897.9364013671875	1049.969848632812	530.7992553710938	868.0701293945312	1075.408081054688	471.3334350585938	1011.783935546875	1036.2705078125	644.2127685546875	748.21240234375	1090.4638671875	638.9833984375	809.2847900390625	1089.599853515625	566.9990844726562	790.3345336914062	1099.67333984375	541.6735229492188	1630.373901367188	803.9085083007812	738.5868530273438	1649.938842773438	744.5224609375	669.3591918945312	1647.757446289062	855.4486694335938	622.80126953125	1638.15478515625	645.27001953125	746.179931640625	848.15283203125	575.0172729492188	468.8330078125	846.4129028320312	865.1531982421875	586.938720703125	891.1460571289062	881.9918823242188	754.3253784179688	896.8960571289062	692.3690795898438	872.4134521484375	459.8865966796875	695.140869140625	862.9027709960938	615.9885864257812	668.5187377929688	776.6282348632812	59.32096099853516	609.9524536132812	854.7579345703125	303.5492553710938	661.5111694335938	927.94189453125	61.01267623901367	783.6012573242188	850.8499755859375	57.79216766357422	771.7677001953125	905.7586059570312	58.1001091003418	676.7921142578125	704.9618530273438	59.98255920410156	623.0306396484375	518.578369140625	450.2647399902344	816.270263671875	508.3819580078125	708.549072265625	884.8800659179688	479.2994384765625	41.32572174072266	731.1664428710938	511.5999145507812	301.8554382324219	801.545654296875	689.707275390625	39.40048980712891	808.08203125	650.5484619140625	45.90714263916016	743.5081787109375	577.380859375	45.73428344726562	822.557373046875	447.8958129882812	33.91816711425781	655.6983642578125	
